<?xml version="1.0" encoding="iso-8859-1"?>
<!-- Generator: Adobe Illustrator 19.0.0, SVG Export Plug-In . SVG Version: 6.00 Build 0)  -->
<svg version="1.1" id="Capa_1" xmlns="http://www.w3.org/2000/svg" xmlns:xlink="http://www.w3.org/1999/xlink" x="0px" y="0px"
	 viewBox="0 0 480 480" style="enable-background:new 0 0 480 480;" xml:space="preserve">
<g>
	<g>
		<path d="M400,0H80C66.745,0,56,10.745,56,24v432c0,13.255,10.745,24,24,24h320c13.255,0,24-10.745,24-24V24
			C424,10.745,413.255,0,400,0z M408,456c0,4.418-3.582,8-8,8H80c-4.418,0-8-3.582-8-8V24c0-4.418,3.582-8,8-8h320
			c4.418,0,8,3.582,8,8V456z"/>
	</g>
</g>
<g>
	<g>
		<path d="M240,88c-83.921-0.025-151.972,67.986-151.997,151.907c-0.013,45.784,20.617,89.133,56.157,117.997l-13.816,13.808
			c-9.373,9.373-9.373,24.571,0,33.944c9.373,9.373,24.571,9.373,33.944,0l23.2-23.2c16.796,6.284,34.579,9.516,52.512,9.544
			c83.947,0,152-68.053,152-152S323.947,88,240,88z M152.976,394.344c-3.126,3.126-8.194,3.126-11.32,0
			c-3.126-3.126-3.126-8.194,0-11.32l67.888-67.872c3.025-3.221,8.087-3.38,11.308-0.355c3.221,3.025,3.38,8.087,0.355,11.308
			c-0.116,0.123-0.236,0.243-0.359,0.359L152.976,394.344z M346.509,324.637C320.705,357.116,281.481,376.031,240,376
			c-13.562,0.002-27.048-2.042-40-6.064l32.168-32.16c9.373-9.372,9.375-24.568,0.003-33.941c-0.001-0.001-0.002-0.002-0.003-0.003
			c-9.499-9.065-24.445-9.065-33.944,0l-42.664,42.672c-58.768-46.691-68.557-132.182-21.867-190.949
			c46.691-58.767,132.182-68.557,190.949-21.867S393.2,265.87,346.509,324.637z"/>
	</g>
</g>
<g>
	<g>
		<path d="M104,24c-13.255,0-24,10.745-24,24s10.745,24,24,24s24-10.745,24-24S117.255,24,104,24z M104,56c-4.418,0-8-3.582-8-8
			s3.582-8,8-8s8,3.582,8,8S108.418,56,104,56z"/>
	</g>
</g>
<g>
	<g>
		<path d="M376,24c-13.255,0-24,10.745-24,24s10.745,24,24,24s24-10.745,24-24S389.255,24,376,24z M376,56c-4.418,0-8-3.582-8-8
			s3.582-8,8-8s8,3.582,8,8S380.418,56,376,56z"/>
	</g>
</g>
<g>
	<g>
		<path d="M376,408c-13.255,0-24,10.745-24,24s10.745,24,24,24s24-10.745,24-24S389.255,408,376,408z M376,440c-4.418,0-8-3.582-8-8
			s3.582-8,8-8s8,3.582,8,8S380.418,440,376,440z"/>
	</g>
</g>
<g>
	<g>
		<path d="M104,408c-13.255,0-24,10.745-24,24s10.745,24,24,24s24-10.745,24-24S117.255,408,104,408z M104,440c-4.418,0-8-3.582-8-8
			s3.582-8,8-8s8,3.582,8,8S108.418,440,104,440z"/>
	</g>
</g>
<g>
	<g>
		<path d="M240,200c-22.091,0-40,17.909-40,40s17.909,40,40,40c22.091,0,40-17.909,40-40C279.974,217.92,262.08,200.026,240,200z
			 M240,264c-13.255,0-24-10.745-24-24s10.745-24,24-24s24,10.745,24,24S253.255,264,240,264z"/>
	</g>
</g>
<g>
</g>
<g>
</g>
<g>
</g>
<g>
</g>
<g>
</g>
<g>
</g>
<g>
</g>
<g>
</g>
<g>
</g>
<g>
</g>
<g>
</g>
<g>
</g>
<g>
</g>
<g>
</g>
<g>
</g>
</svg>
