<svg id="Capa_1" enable-background="new 0 0 512 512" height="512" viewBox="0 0 512 512" width="512" xmlns="http://www.w3.org/2000/svg"><g><path d="m482 0h-452c-16.542 0-30 13.458-30 30v452c0 16.542 13.458 30 30 30h452c16.542 0 30-13.458 30-30v-452c0-16.542-13.458-30-30-30zm0 482h-452v-452h452c.019 461.689.1 452 0 452z"/><path d="m443.002 255.311c0-42.055-23.98-70.311-59.672-70.311h-31.33c-8.29 0-15.016 6.734-15 15.028.118 62.214.034 57.574.225 110.646.031 8.27 6.749 14.946 15 14.946 3.01 0 24.719-.114 32.284-.246 33.893-.591 58.493-30.057 58.493-70.063zm-59.018 40.069c-3.885.068-10.569.123-16.812.163-.108-32.563-.075-37.289-.146-80.543h16.303c27.532 0 29.672 30.854 29.672 40.311.001 19.692-8.972 39.719-29.017 40.069z"/><path d="m82.93 94.71c8.075-1.682 13.34-9.305 11.78-17.64-1.881-8.976-10.762-13.899-19.07-11.42-7.828 2.551-11.729 9.913-10.35 17.28 1.684 8.115 9.352 13.333 17.64 11.78z"/><path d="m436.359 94.35c7.95-2.599 11.706-10.039 10.351-17.28-1.882-8.983-10.758-13.9-19.07-11.42-8.559 2.789-12.215 11.227-9.99 18.71 2.366 7.74 10.528 12.422 18.709 9.99z"/><path d="m427.64 417.65c-8.559 2.789-12.215 11.227-9.99 18.71 2.367 7.742 10.53 12.422 18.71 9.99 7.855-2.568 11.725-9.935 10.351-17.28-1.883-8.983-10.759-13.9-19.071-11.42z"/><path d="m75.64 417.65c-8.618 2.808-12.198 11.286-9.99 18.71 2.824 8.637 11.287 12.197 18.71 9.99 7.967-2.605 11.703-10.054 10.351-17.28-1.868-8.907-10.692-13.92-19.071-11.42z"/><path d="m142.813 243.822c-13.873-5.117-26.798-10.688-30.9-12.482-4.497-3.72-3.311-12.353 6.096-15.187 15.814-4.763 30.557 6.997 30.706 7.116-.001-.001.001-.005.001-.007 9.652 8.109 24.638 1.319 24.638-11.487 0-4.814-2.277-9.088-5.803-11.832-3.331-2.678-28.233-21.542-58.194-12.515-34.367 10.353-39.804 52.167-13.089 69.585 4.034 2.626 31.365 13.185 36.164 14.955 3.761 1.387 15.919 6.546 14.466 14.682-1.083 6.067-8.551 12.343-19.174 12.343-11.121 0-21.816-4.475-28.608-11.97-5.562-6.138-15.049-6.606-21.188-1.043s-6.605 15.049-1.043 21.188c12.569 13.871 31.099 21.826 50.839 21.826 51.468-.001 72.068-64.155 15.089-85.172z"/><path d="m276.697 223.276c-.005-.004-.027-.021-.062-.049-.038.075.036.028.062.049z"/><path d="m270.813 243.822c-13.873-5.117-26.798-10.688-30.9-12.482-4.497-3.72-3.311-12.353 6.096-15.187 15.814-4.763 30.557 6.997 30.706 7.116-.001-.001.001-.005.001-.007 9.652 8.109 24.638 1.319 24.638-11.487 0-4.814-2.277-9.088-5.803-11.832-3.331-2.678-28.233-21.542-58.194-12.515-34.367 10.353-39.804 52.167-13.089 69.585 4.034 2.626 31.365 13.185 36.164 14.955 3.761 1.387 15.919 6.546 14.466 14.682-1.083 6.067-8.551 12.343-19.174 12.343-11.121 0-21.816-4.475-28.608-11.97-5.562-6.138-15.049-6.606-21.188-1.043s-6.605 15.049-1.043 21.188c12.569 13.871 31.099 21.826 50.839 21.826 51.468-.001 72.068-64.155 15.089-85.172z"/></g></svg>