<svg id="Capa_1" enable-background="new 0 0 512 512" height="512" viewBox="0 0 512 512" width="512" xmlns="http://www.w3.org/2000/svg"><g><path d="m482 89h-387v-34c0-16.542-13.458-30-30-30h-33c-8.284 0-15 6.716-15 15s6.716 15 15 15h33v74h-35c-16.542 0-30 13.458-30 30v42c0 16.542 13.458 30 30 30h35v34h-35c-16.542 0-30 13.458-30 30v42c0 16.542 13.458 30 30 30h35v105c0 8.284 6.716 15 15 15s15-6.716 15-15v-65h34v34c0 16.542 13.458 30 30 30h154c16.542 0 30-13.458 30-30v-34h34v34c0 16.542 13.458 30 30 30h42c16.542 0 30-13.458 30-30v-34h3c16.542 0 30-13.458 30-30 0-6.964 0-251.276 0-258 0-16.542-13.458-30-30-30zm0 144h-50c-8.284 0-15 6.716-15 15s6.716 15 15 15h50v34h-250c-27.019 0-49-21.981-49-49s21.981-49 49-49h250zm-452-32v-42h35v42zm0 136v-42h35v42zm283 104h-154v-34h154zm136 0h-42v-34h42zm33-64c-20.134 0-372.276 0-387 0 0-50.262 0-199.894 0-258h387l.004 50h-250.004c-43.561 0-79 35.439-79 79s35.439 79 79 79h250.015c.004 51.066.085 50-.015 50z"/></g></svg>